<?xml version="1.0"?>
<svg xmlns="http://www.w3.org/2000/svg" xmlns:xlink="http://www.w3.org/1999/xlink" version="1.1" width="500px" height="500px" viewBox="0 0 500 500"><defs><rect id="block" width="17.241379310345" height="17.241379310345" fill="#000000" fill-opacity="1"/></defs><rect x="0" y="0" width="500" height="500" fill="#ffffff" fill-opacity="1"/><use x="0" y="0" xlink:href="#block"/><use x="17.241379310345" y="0" xlink:href="#block"/><use x="34.48275862069" y="0" xlink:href="#block"/><use x="51.724137931034" y="0" xlink:href="#block"/><use x="68.965517241379" y="0" xlink:href="#block"/><use x="86.206896551724" y="0" xlink:href="#block"/><use x="103.44827586207" y="0" xlink:href="#block"/><use x="137.93103448276" y="0" xlink:href="#block"/><use x="155.1724137931" y="0" xlink:href="#block"/><use x="206.89655172414" y="0" xlink:href="#block"/><use x="224.13793103448" y="0" xlink:href="#block"/><use x="379.31034482759" y="0" xlink:href="#block"/><use x="396.55172413793" y="0" xlink:href="#block"/><use x="413.79310344828" y="0" xlink:href="#block"/><use x="431.03448275862" y="0" xlink:href="#block"/><use x="448.27586206897" y="0" xlink:href="#block"/><use x="465.51724137931" y="0" xlink:href="#block"/><use x="482.75862068966" y="0" xlink:href="#block"/><use x="0" y="17.241379310345" xlink:href="#block"/><use x="103.44827586207" y="17.241379310345" xlink:href="#block"/><use x="137.93103448276" y="17.241379310345" xlink:href="#block"/><use x="155.1724137931" y="17.241379310345" xlink:href="#block"/><use x="172.41379310345" y="17.241379310345" xlink:href="#block"/><use x="189.65517241379" y="17.241379310345" xlink:href="#block"/><use x="206.89655172414" y="17.241379310345" xlink:href="#block"/><use x="258.62068965517" y="17.241379310345" xlink:href="#block"/><use x="293.10344827586" y="17.241379310345" xlink:href="#block"/><use x="344.8275862069" y="17.241379310345" xlink:href="#block"/><use x="379.31034482759" y="17.241379310345" xlink:href="#block"/><use x="482.75862068966" y="17.241379310345" xlink:href="#block"/><use x="0" y="34.48275862069" xlink:href="#block"/><use x="34.48275862069" y="34.48275862069" xlink:href="#block"/><use x="51.724137931034" y="34.48275862069" xlink:href="#block"/><use x="68.965517241379" y="34.48275862069" xlink:href="#block"/><use x="103.44827586207" y="34.48275862069" xlink:href="#block"/><use x="137.93103448276" y="34.48275862069" xlink:href="#block"/><use x="155.1724137931" y="34.48275862069" xlink:href="#block"/><use x="172.41379310345" y="34.48275862069" xlink:href="#block"/><use x="189.65517241379" y="34.48275862069" xlink:href="#block"/><use x="241.37931034483" y="34.48275862069" xlink:href="#block"/><use x="275.86206896552" y="34.48275862069" xlink:href="#block"/><use x="293.10344827586" y="34.48275862069" xlink:href="#block"/><use x="310.34482758621" y="34.48275862069" xlink:href="#block"/><use x="379.31034482759" y="34.48275862069" xlink:href="#block"/><use x="413.79310344828" y="34.48275862069" xlink:href="#block"/><use x="431.03448275862" y="34.48275862069" xlink:href="#block"/><use x="448.27586206897" y="34.48275862069" xlink:href="#block"/><use x="482.75862068966" y="34.48275862069" xlink:href="#block"/><use x="0" y="51.724137931034" xlink:href="#block"/><use x="34.48275862069" y="51.724137931034" xlink:href="#block"/><use x="51.724137931034" y="51.724137931034" xlink:href="#block"/><use x="68.965517241379" y="51.724137931034" xlink:href="#block"/><use x="103.44827586207" y="51.724137931034" xlink:href="#block"/><use x="155.1724137931" y="51.724137931034" xlink:href="#block"/><use x="206.89655172414" y="51.724137931034" xlink:href="#block"/><use x="344.8275862069" y="51.724137931034" xlink:href="#block"/><use x="379.31034482759" y="51.724137931034" xlink:href="#block"/><use x="413.79310344828" y="51.724137931034" xlink:href="#block"/><use x="431.03448275862" y="51.724137931034" xlink:href="#block"/><use x="448.27586206897" y="51.724137931034" xlink:href="#block"/><use x="482.75862068966" y="51.724137931034" xlink:href="#block"/><use x="0" y="68.965517241379" xlink:href="#block"/><use x="34.48275862069" y="68.965517241379" xlink:href="#block"/><use x="51.724137931034" y="68.965517241379" xlink:href="#block"/><use x="68.965517241379" y="68.965517241379" xlink:href="#block"/><use x="103.44827586207" y="68.965517241379" xlink:href="#block"/><use x="155.1724137931" y="68.965517241379" xlink:href="#block"/><use x="172.41379310345" y="68.965517241379" xlink:href="#block"/><use x="189.65517241379" y="68.965517241379" xlink:href="#block"/><use x="224.13793103448" y="68.965517241379" xlink:href="#block"/><use x="241.37931034483" y="68.965517241379" xlink:href="#block"/><use x="275.86206896552" y="68.965517241379" xlink:href="#block"/><use x="293.10344827586" y="68.965517241379" xlink:href="#block"/><use x="310.34482758621" y="68.965517241379" xlink:href="#block"/><use x="327.58620689655" y="68.965517241379" xlink:href="#block"/><use x="379.31034482759" y="68.965517241379" xlink:href="#block"/><use x="413.79310344828" y="68.965517241379" xlink:href="#block"/><use x="431.03448275862" y="68.965517241379" xlink:href="#block"/><use x="448.27586206897" y="68.965517241379" xlink:href="#block"/><use x="482.75862068966" y="68.965517241379" xlink:href="#block"/><use x="0" y="86.206896551724" xlink:href="#block"/><use x="103.44827586207" y="86.206896551724" xlink:href="#block"/><use x="137.93103448276" y="86.206896551724" xlink:href="#block"/><use x="172.41379310345" y="86.206896551724" xlink:href="#block"/><use x="189.65517241379" y="86.206896551724" xlink:href="#block"/><use x="206.89655172414" y="86.206896551724" xlink:href="#block"/><use x="224.13793103448" y="86.206896551724" xlink:href="#block"/><use x="241.37931034483" y="86.206896551724" xlink:href="#block"/><use x="293.10344827586" y="86.206896551724" xlink:href="#block"/><use x="379.31034482759" y="86.206896551724" xlink:href="#block"/><use x="482.75862068966" y="86.206896551724" xlink:href="#block"/><use x="0" y="103.44827586207" xlink:href="#block"/><use x="17.241379310345" y="103.44827586207" xlink:href="#block"/><use x="34.48275862069" y="103.44827586207" xlink:href="#block"/><use x="51.724137931034" y="103.44827586207" xlink:href="#block"/><use x="68.965517241379" y="103.44827586207" xlink:href="#block"/><use x="86.206896551724" y="103.44827586207" xlink:href="#block"/><use x="103.44827586207" y="103.44827586207" xlink:href="#block"/><use x="137.93103448276" y="103.44827586207" xlink:href="#block"/><use x="172.41379310345" y="103.44827586207" xlink:href="#block"/><use x="206.89655172414" y="103.44827586207" xlink:href="#block"/><use x="241.37931034483" y="103.44827586207" xlink:href="#block"/><use x="275.86206896552" y="103.44827586207" xlink:href="#block"/><use x="310.34482758621" y="103.44827586207" xlink:href="#block"/><use x="344.8275862069" y="103.44827586207" xlink:href="#block"/><use x="379.31034482759" y="103.44827586207" xlink:href="#block"/><use x="396.55172413793" y="103.44827586207" xlink:href="#block"/><use x="413.79310344828" y="103.44827586207" xlink:href="#block"/><use x="431.03448275862" y="103.44827586207" xlink:href="#block"/><use x="448.27586206897" y="103.44827586207" xlink:href="#block"/><use x="465.51724137931" y="103.44827586207" xlink:href="#block"/><use x="482.75862068966" y="103.44827586207" xlink:href="#block"/><use x="137.93103448276" y="120.68965517241" xlink:href="#block"/><use x="172.41379310345" y="120.68965517241" xlink:href="#block"/><use x="189.65517241379" y="120.68965517241" xlink:href="#block"/><use x="275.86206896552" y="120.68965517241" xlink:href="#block"/><use x="293.10344827586" y="120.68965517241" xlink:href="#block"/><use x="310.34482758621" y="120.68965517241" xlink:href="#block"/><use x="327.58620689655" y="120.68965517241" xlink:href="#block"/><use x="344.8275862069" y="120.68965517241" xlink:href="#block"/><use x="34.48275862069" y="137.93103448276" xlink:href="#block"/><use x="51.724137931034" y="137.93103448276" xlink:href="#block"/><use x="68.965517241379" y="137.93103448276" xlink:href="#block"/><use x="103.44827586207" y="137.93103448276" xlink:href="#block"/><use x="137.93103448276" y="137.93103448276" xlink:href="#block"/><use x="155.1724137931" y="137.93103448276" xlink:href="#block"/><use x="172.41379310345" y="137.93103448276" xlink:href="#block"/><use x="189.65517241379" y="137.93103448276" xlink:href="#block"/><use x="206.89655172414" y="137.93103448276" xlink:href="#block"/><use x="224.13793103448" y="137.93103448276" xlink:href="#block"/><use x="275.86206896552" y="137.93103448276" xlink:href="#block"/><use x="362.06896551724" y="137.93103448276" xlink:href="#block"/><use x="379.31034482759" y="137.93103448276" xlink:href="#block"/><use x="396.55172413793" y="137.93103448276" xlink:href="#block"/><use x="448.27586206897" y="137.93103448276" xlink:href="#block"/><use x="465.51724137931" y="137.93103448276" xlink:href="#block"/><use x="482.75862068966" y="137.93103448276" xlink:href="#block"/><use x="17.241379310345" y="155.1724137931" xlink:href="#block"/><use x="34.48275862069" y="155.1724137931" xlink:href="#block"/><use x="51.724137931034" y="155.1724137931" xlink:href="#block"/><use x="68.965517241379" y="155.1724137931" xlink:href="#block"/><use x="86.206896551724" y="155.1724137931" xlink:href="#block"/><use x="120.68965517241" y="155.1724137931" xlink:href="#block"/><use x="206.89655172414" y="155.1724137931" xlink:href="#block"/><use x="258.62068965517" y="155.1724137931" xlink:href="#block"/><use x="275.86206896552" y="155.1724137931" xlink:href="#block"/><use x="310.34482758621" y="155.1724137931" xlink:href="#block"/><use x="344.8275862069" y="155.1724137931" xlink:href="#block"/><use x="362.06896551724" y="155.1724137931" xlink:href="#block"/><use x="396.55172413793" y="155.1724137931" xlink:href="#block"/><use x="482.75862068966" y="155.1724137931" xlink:href="#block"/><use x="51.724137931034" y="172.41379310345" xlink:href="#block"/><use x="103.44827586207" y="172.41379310345" xlink:href="#block"/><use x="120.68965517241" y="172.41379310345" xlink:href="#block"/><use x="172.41379310345" y="172.41379310345" xlink:href="#block"/><use x="189.65517241379" y="172.41379310345" xlink:href="#block"/><use x="224.13793103448" y="172.41379310345" xlink:href="#block"/><use x="310.34482758621" y="172.41379310345" xlink:href="#block"/><use x="327.58620689655" y="172.41379310345" xlink:href="#block"/><use x="448.27586206897" y="172.41379310345" xlink:href="#block"/><use x="482.75862068966" y="172.41379310345" xlink:href="#block"/><use x="51.724137931034" y="189.65517241379" xlink:href="#block"/><use x="86.206896551724" y="189.65517241379" xlink:href="#block"/><use x="155.1724137931" y="189.65517241379" xlink:href="#block"/><use x="172.41379310345" y="189.65517241379" xlink:href="#block"/><use x="189.65517241379" y="189.65517241379" xlink:href="#block"/><use x="241.37931034483" y="189.65517241379" xlink:href="#block"/><use x="275.86206896552" y="189.65517241379" xlink:href="#block"/><use x="293.10344827586" y="189.65517241379" xlink:href="#block"/><use x="310.34482758621" y="189.65517241379" xlink:href="#block"/><use x="327.58620689655" y="189.65517241379" xlink:href="#block"/><use x="344.8275862069" y="189.65517241379" xlink:href="#block"/><use x="379.31034482759" y="189.65517241379" xlink:href="#block"/><use x="396.55172413793" y="189.65517241379" xlink:href="#block"/><use x="431.03448275862" y="189.65517241379" xlink:href="#block"/><use x="448.27586206897" y="189.65517241379" xlink:href="#block"/><use x="465.51724137931" y="189.65517241379" xlink:href="#block"/><use x="0" y="206.89655172414" xlink:href="#block"/><use x="17.241379310345" y="206.89655172414" xlink:href="#block"/><use x="34.48275862069" y="206.89655172414" xlink:href="#block"/><use x="103.44827586207" y="206.89655172414" xlink:href="#block"/><use x="120.68965517241" y="206.89655172414" xlink:href="#block"/><use x="155.1724137931" y="206.89655172414" xlink:href="#block"/><use x="172.41379310345" y="206.89655172414" xlink:href="#block"/><use x="189.65517241379" y="206.89655172414" xlink:href="#block"/><use x="224.13793103448" y="206.89655172414" xlink:href="#block"/><use x="241.37931034483" y="206.89655172414" xlink:href="#block"/><use x="258.62068965517" y="206.89655172414" xlink:href="#block"/><use x="275.86206896552" y="206.89655172414" xlink:href="#block"/><use x="310.34482758621" y="206.89655172414" xlink:href="#block"/><use x="327.58620689655" y="206.89655172414" xlink:href="#block"/><use x="344.8275862069" y="206.89655172414" xlink:href="#block"/><use x="362.06896551724" y="206.89655172414" xlink:href="#block"/><use x="413.79310344828" y="206.89655172414" xlink:href="#block"/><use x="448.27586206897" y="206.89655172414" xlink:href="#block"/><use x="465.51724137931" y="206.89655172414" xlink:href="#block"/><use x="51.724137931034" y="224.13793103448" xlink:href="#block"/><use x="86.206896551724" y="224.13793103448" xlink:href="#block"/><use x="172.41379310345" y="224.13793103448" xlink:href="#block"/><use x="189.65517241379" y="224.13793103448" xlink:href="#block"/><use x="310.34482758621" y="224.13793103448" xlink:href="#block"/><use x="327.58620689655" y="224.13793103448" xlink:href="#block"/><use x="344.8275862069" y="224.13793103448" xlink:href="#block"/><use x="379.31034482759" y="224.13793103448" xlink:href="#block"/><use x="413.79310344828" y="224.13793103448" xlink:href="#block"/><use x="431.03448275862" y="224.13793103448" xlink:href="#block"/><use x="465.51724137931" y="224.13793103448" xlink:href="#block"/><use x="482.75862068966" y="224.13793103448" xlink:href="#block"/><use x="17.241379310345" y="241.37931034483" xlink:href="#block"/><use x="68.965517241379" y="241.37931034483" xlink:href="#block"/><use x="103.44827586207" y="241.37931034483" xlink:href="#block"/><use x="155.1724137931" y="241.37931034483" xlink:href="#block"/><use x="172.41379310345" y="241.37931034483" xlink:href="#block"/><use x="206.89655172414" y="241.37931034483" xlink:href="#block"/><use x="258.62068965517" y="241.37931034483" xlink:href="#block"/><use x="275.86206896552" y="241.37931034483" xlink:href="#block"/><use x="327.58620689655" y="241.37931034483" xlink:href="#block"/><use x="362.06896551724" y="241.37931034483" xlink:href="#block"/><use x="396.55172413793" y="241.37931034483" xlink:href="#block"/><use x="448.27586206897" y="241.37931034483" xlink:href="#block"/><use x="465.51724137931" y="241.37931034483" xlink:href="#block"/><use x="0" y="258.62068965517" xlink:href="#block"/><use x="51.724137931034" y="258.62068965517" xlink:href="#block"/><use x="120.68965517241" y="258.62068965517" xlink:href="#block"/><use x="137.93103448276" y="258.62068965517" xlink:href="#block"/><use x="172.41379310345" y="258.62068965517" xlink:href="#block"/><use x="189.65517241379" y="258.62068965517" xlink:href="#block"/><use x="206.89655172414" y="258.62068965517" xlink:href="#block"/><use x="258.62068965517" y="258.62068965517" xlink:href="#block"/><use x="275.86206896552" y="258.62068965517" xlink:href="#block"/><use x="310.34482758621" y="258.62068965517" xlink:href="#block"/><use x="327.58620689655" y="258.62068965517" xlink:href="#block"/><use x="396.55172413793" y="258.62068965517" xlink:href="#block"/><use x="413.79310344828" y="258.62068965517" xlink:href="#block"/><use x="448.27586206897" y="258.62068965517" xlink:href="#block"/><use x="482.75862068966" y="258.62068965517" xlink:href="#block"/><use x="86.206896551724" y="275.86206896552" xlink:href="#block"/><use x="103.44827586207" y="275.86206896552" xlink:href="#block"/><use x="120.68965517241" y="275.86206896552" xlink:href="#block"/><use x="137.93103448276" y="275.86206896552" xlink:href="#block"/><use x="155.1724137931" y="275.86206896552" xlink:href="#block"/><use x="172.41379310345" y="275.86206896552" xlink:href="#block"/><use x="206.89655172414" y="275.86206896552" xlink:href="#block"/><use x="224.13793103448" y="275.86206896552" xlink:href="#block"/><use x="275.86206896552" y="275.86206896552" xlink:href="#block"/><use x="310.34482758621" y="275.86206896552" xlink:href="#block"/><use x="344.8275862069" y="275.86206896552" xlink:href="#block"/><use x="362.06896551724" y="275.86206896552" xlink:href="#block"/><use x="413.79310344828" y="275.86206896552" xlink:href="#block"/><use x="0" y="293.10344827586" xlink:href="#block"/><use x="17.241379310345" y="293.10344827586" xlink:href="#block"/><use x="34.48275862069" y="293.10344827586" xlink:href="#block"/><use x="137.93103448276" y="293.10344827586" xlink:href="#block"/><use x="155.1724137931" y="293.10344827586" xlink:href="#block"/><use x="206.89655172414" y="293.10344827586" xlink:href="#block"/><use x="241.37931034483" y="293.10344827586" xlink:href="#block"/><use x="293.10344827586" y="293.10344827586" xlink:href="#block"/><use x="310.34482758621" y="293.10344827586" xlink:href="#block"/><use x="413.79310344828" y="293.10344827586" xlink:href="#block"/><use x="431.03448275862" y="293.10344827586" xlink:href="#block"/><use x="465.51724137931" y="293.10344827586" xlink:href="#block"/><use x="0" y="310.34482758621" xlink:href="#block"/><use x="51.724137931034" y="310.34482758621" xlink:href="#block"/><use x="68.965517241379" y="310.34482758621" xlink:href="#block"/><use x="86.206896551724" y="310.34482758621" xlink:href="#block"/><use x="103.44827586207" y="310.34482758621" xlink:href="#block"/><use x="120.68965517241" y="310.34482758621" xlink:href="#block"/><use x="172.41379310345" y="310.34482758621" xlink:href="#block"/><use x="189.65517241379" y="310.34482758621" xlink:href="#block"/><use x="206.89655172414" y="310.34482758621" xlink:href="#block"/><use x="241.37931034483" y="310.34482758621" xlink:href="#block"/><use x="258.62068965517" y="310.34482758621" xlink:href="#block"/><use x="275.86206896552" y="310.34482758621" xlink:href="#block"/><use x="344.8275862069" y="310.34482758621" xlink:href="#block"/><use x="362.06896551724" y="310.34482758621" xlink:href="#block"/><use x="413.79310344828" y="310.34482758621" xlink:href="#block"/><use x="431.03448275862" y="310.34482758621" xlink:href="#block"/><use x="448.27586206897" y="310.34482758621" xlink:href="#block"/><use x="0" y="327.58620689655" xlink:href="#block"/><use x="34.48275862069" y="327.58620689655" xlink:href="#block"/><use x="51.724137931034" y="327.58620689655" xlink:href="#block"/><use x="68.965517241379" y="327.58620689655" xlink:href="#block"/><use x="120.68965517241" y="327.58620689655" xlink:href="#block"/><use x="155.1724137931" y="327.58620689655" xlink:href="#block"/><use x="172.41379310345" y="327.58620689655" xlink:href="#block"/><use x="189.65517241379" y="327.58620689655" xlink:href="#block"/><use x="206.89655172414" y="327.58620689655" xlink:href="#block"/><use x="224.13793103448" y="327.58620689655" xlink:href="#block"/><use x="241.37931034483" y="327.58620689655" xlink:href="#block"/><use x="275.86206896552" y="327.58620689655" xlink:href="#block"/><use x="293.10344827586" y="327.58620689655" xlink:href="#block"/><use x="310.34482758621" y="327.58620689655" xlink:href="#block"/><use x="379.31034482759" y="327.58620689655" xlink:href="#block"/><use x="413.79310344828" y="327.58620689655" xlink:href="#block"/><use x="465.51724137931" y="327.58620689655" xlink:href="#block"/><use x="482.75862068966" y="327.58620689655" xlink:href="#block"/><use x="0" y="344.8275862069" xlink:href="#block"/><use x="51.724137931034" y="344.8275862069" xlink:href="#block"/><use x="68.965517241379" y="344.8275862069" xlink:href="#block"/><use x="103.44827586207" y="344.8275862069" xlink:href="#block"/><use x="120.68965517241" y="344.8275862069" xlink:href="#block"/><use x="137.93103448276" y="344.8275862069" xlink:href="#block"/><use x="224.13793103448" y="344.8275862069" xlink:href="#block"/><use x="310.34482758621" y="344.8275862069" xlink:href="#block"/><use x="344.8275862069" y="344.8275862069" xlink:href="#block"/><use x="362.06896551724" y="344.8275862069" xlink:href="#block"/><use x="379.31034482759" y="344.8275862069" xlink:href="#block"/><use x="396.55172413793" y="344.8275862069" xlink:href="#block"/><use x="413.79310344828" y="344.8275862069" xlink:href="#block"/><use x="431.03448275862" y="344.8275862069" xlink:href="#block"/><use x="448.27586206897" y="344.8275862069" xlink:href="#block"/><use x="465.51724137931" y="344.8275862069" xlink:href="#block"/><use x="482.75862068966" y="344.8275862069" xlink:href="#block"/><use x="137.93103448276" y="362.06896551724" xlink:href="#block"/><use x="155.1724137931" y="362.06896551724" xlink:href="#block"/><use x="189.65517241379" y="362.06896551724" xlink:href="#block"/><use x="258.62068965517" y="362.06896551724" xlink:href="#block"/><use x="293.10344827586" y="362.06896551724" xlink:href="#block"/><use x="327.58620689655" y="362.06896551724" xlink:href="#block"/><use x="344.8275862069" y="362.06896551724" xlink:href="#block"/><use x="413.79310344828" y="362.06896551724" xlink:href="#block"/><use x="431.03448275862" y="362.06896551724" xlink:href="#block"/><use x="482.75862068966" y="362.06896551724" xlink:href="#block"/><use x="0" y="379.31034482759" xlink:href="#block"/><use x="17.241379310345" y="379.31034482759" xlink:href="#block"/><use x="34.48275862069" y="379.31034482759" xlink:href="#block"/><use x="51.724137931034" y="379.31034482759" xlink:href="#block"/><use x="68.965517241379" y="379.31034482759" xlink:href="#block"/><use x="86.206896551724" y="379.31034482759" xlink:href="#block"/><use x="103.44827586207" y="379.31034482759" xlink:href="#block"/><use x="155.1724137931" y="379.31034482759" xlink:href="#block"/><use x="172.41379310345" y="379.31034482759" xlink:href="#block"/><use x="224.13793103448" y="379.31034482759" xlink:href="#block"/><use x="241.37931034483" y="379.31034482759" xlink:href="#block"/><use x="293.10344827586" y="379.31034482759" xlink:href="#block"/><use x="327.58620689655" y="379.31034482759" xlink:href="#block"/><use x="344.8275862069" y="379.31034482759" xlink:href="#block"/><use x="379.31034482759" y="379.31034482759" xlink:href="#block"/><use x="413.79310344828" y="379.31034482759" xlink:href="#block"/><use x="431.03448275862" y="379.31034482759" xlink:href="#block"/><use x="448.27586206897" y="379.31034482759" xlink:href="#block"/><use x="465.51724137931" y="379.31034482759" xlink:href="#block"/><use x="482.75862068966" y="379.31034482759" xlink:href="#block"/><use x="0" y="396.55172413793" xlink:href="#block"/><use x="103.44827586207" y="396.55172413793" xlink:href="#block"/><use x="189.65517241379" y="396.55172413793" xlink:href="#block"/><use x="258.62068965517" y="396.55172413793" xlink:href="#block"/><use x="275.86206896552" y="396.55172413793" xlink:href="#block"/><use x="327.58620689655" y="396.55172413793" xlink:href="#block"/><use x="344.8275862069" y="396.55172413793" xlink:href="#block"/><use x="413.79310344828" y="396.55172413793" xlink:href="#block"/><use x="431.03448275862" y="396.55172413793" xlink:href="#block"/><use x="465.51724137931" y="396.55172413793" xlink:href="#block"/><use x="482.75862068966" y="396.55172413793" xlink:href="#block"/><use x="0" y="413.79310344828" xlink:href="#block"/><use x="34.48275862069" y="413.79310344828" xlink:href="#block"/><use x="51.724137931034" y="413.79310344828" xlink:href="#block"/><use x="68.965517241379" y="413.79310344828" xlink:href="#block"/><use x="103.44827586207" y="413.79310344828" xlink:href="#block"/><use x="137.93103448276" y="413.79310344828" xlink:href="#block"/><use x="172.41379310345" y="413.79310344828" xlink:href="#block"/><use x="189.65517241379" y="413.79310344828" xlink:href="#block"/><use x="206.89655172414" y="413.79310344828" xlink:href="#block"/><use x="224.13793103448" y="413.79310344828" xlink:href="#block"/><use x="310.34482758621" y="413.79310344828" xlink:href="#block"/><use x="327.58620689655" y="413.79310344828" xlink:href="#block"/><use x="344.8275862069" y="413.79310344828" xlink:href="#block"/><use x="362.06896551724" y="413.79310344828" xlink:href="#block"/><use x="379.31034482759" y="413.79310344828" xlink:href="#block"/><use x="396.55172413793" y="413.79310344828" xlink:href="#block"/><use x="413.79310344828" y="413.79310344828" xlink:href="#block"/><use x="0" y="431.03448275862" xlink:href="#block"/><use x="34.48275862069" y="431.03448275862" xlink:href="#block"/><use x="51.724137931034" y="431.03448275862" xlink:href="#block"/><use x="68.965517241379" y="431.03448275862" xlink:href="#block"/><use x="103.44827586207" y="431.03448275862" xlink:href="#block"/><use x="137.93103448276" y="431.03448275862" xlink:href="#block"/><use x="155.1724137931" y="431.03448275862" xlink:href="#block"/><use x="189.65517241379" y="431.03448275862" xlink:href="#block"/><use x="206.89655172414" y="431.03448275862" xlink:href="#block"/><use x="275.86206896552" y="431.03448275862" xlink:href="#block"/><use x="310.34482758621" y="431.03448275862" xlink:href="#block"/><use x="344.8275862069" y="431.03448275862" xlink:href="#block"/><use x="362.06896551724" y="431.03448275862" xlink:href="#block"/><use x="379.31034482759" y="431.03448275862" xlink:href="#block"/><use x="413.79310344828" y="431.03448275862" xlink:href="#block"/><use x="431.03448275862" y="431.03448275862" xlink:href="#block"/><use x="0" y="448.27586206897" xlink:href="#block"/><use x="34.48275862069" y="448.27586206897" xlink:href="#block"/><use x="51.724137931034" y="448.27586206897" xlink:href="#block"/><use x="68.965517241379" y="448.27586206897" xlink:href="#block"/><use x="103.44827586207" y="448.27586206897" xlink:href="#block"/><use x="137.93103448276" y="448.27586206897" xlink:href="#block"/><use x="155.1724137931" y="448.27586206897" xlink:href="#block"/><use x="172.41379310345" y="448.27586206897" xlink:href="#block"/><use x="206.89655172414" y="448.27586206897" xlink:href="#block"/><use x="241.37931034483" y="448.27586206897" xlink:href="#block"/><use x="275.86206896552" y="448.27586206897" xlink:href="#block"/><use x="310.34482758621" y="448.27586206897" xlink:href="#block"/><use x="362.06896551724" y="448.27586206897" xlink:href="#block"/><use x="379.31034482759" y="448.27586206897" xlink:href="#block"/><use x="396.55172413793" y="448.27586206897" xlink:href="#block"/><use x="413.79310344828" y="448.27586206897" xlink:href="#block"/><use x="431.03448275862" y="448.27586206897" xlink:href="#block"/><use x="448.27586206897" y="448.27586206897" xlink:href="#block"/><use x="465.51724137931" y="448.27586206897" xlink:href="#block"/><use x="0" y="465.51724137931" xlink:href="#block"/><use x="103.44827586207" y="465.51724137931" xlink:href="#block"/><use x="189.65517241379" y="465.51724137931" xlink:href="#block"/><use x="241.37931034483" y="465.51724137931" xlink:href="#block"/><use x="258.62068965517" y="465.51724137931" xlink:href="#block"/><use x="293.10344827586" y="465.51724137931" xlink:href="#block"/><use x="379.31034482759" y="465.51724137931" xlink:href="#block"/><use x="396.55172413793" y="465.51724137931" xlink:href="#block"/><use x="431.03448275862" y="465.51724137931" xlink:href="#block"/><use x="482.75862068966" y="465.51724137931" xlink:href="#block"/><use x="0" y="482.75862068966" xlink:href="#block"/><use x="17.241379310345" y="482.75862068966" xlink:href="#block"/><use x="34.48275862069" y="482.75862068966" xlink:href="#block"/><use x="51.724137931034" y="482.75862068966" xlink:href="#block"/><use x="68.965517241379" y="482.75862068966" xlink:href="#block"/><use x="86.206896551724" y="482.75862068966" xlink:href="#block"/><use x="103.44827586207" y="482.75862068966" xlink:href="#block"/><use x="155.1724137931" y="482.75862068966" xlink:href="#block"/><use x="258.62068965517" y="482.75862068966" xlink:href="#block"/><use x="275.86206896552" y="482.75862068966" xlink:href="#block"/><use x="293.10344827586" y="482.75862068966" xlink:href="#block"/><use x="310.34482758621" y="482.75862068966" xlink:href="#block"/><use x="327.58620689655" y="482.75862068966" xlink:href="#block"/><use x="344.8275862069" y="482.75862068966" xlink:href="#block"/><use x="362.06896551724" y="482.75862068966" xlink:href="#block"/><use x="379.31034482759" y="482.75862068966" xlink:href="#block"/><use x="396.55172413793" y="482.75862068966" xlink:href="#block"/><use x="413.79310344828" y="482.75862068966" xlink:href="#block"/><use x="431.03448275862" y="482.75862068966" xlink:href="#block"/></svg>
